<?xml version="1.0" standalone="no"?>
<!DOCTYPE svg PUBLIC "-//W3C//DTD SVG 20010904//EN"
 "http://www.w3.org/TR/2001/REC-SVG-20010904/DTD/svg10.dtd">
<svg version="1.0" xmlns="http://www.w3.org/2000/svg"
 width="626.000000pt" height="626.000000pt" viewBox="0 0 626.000000 626.000000"
 preserveAspectRatio="xMidYMid meet">
<metadata>
Created by potrace 1.14, written by Peter Selinger 2001-2017
</metadata>
<g transform="translate(0.000000,626.000000) scale(0.100000,-0.100000)"
fill="#000000" stroke="none">
<path d="M1307 6254 c-1 -1 -33 -5 -72 -9 -85 -8 -110 -12 -110 -15 0 -1 -11
-3 -25 -5 -14 -2 -36 -6 -50 -10 -14 -4 -31 -7 -37 -7 -7 -1 -13 -5 -13 -9 0
-4 -9 -6 -20 -4 -11 2 -20 -1 -20 -6 0 -6 -4 -8 -8 -5 -5 3 -19 -1 -33 -8 -13
-7 -28 -14 -34 -15 -13 -4 -54 -20 -85 -34 -14 -5 -28 -10 -32 -9 -5 1 -8 -2
-8 -7 0 -5 -11 -12 -25 -15 -14 -4 -25 -11 -25 -17 0 -6 -4 -7 -10 -4 -5 3
-10 1 -10 -5 0 -6 -5 -8 -10 -5 -6 3 -13 -1 -16 -9 -3 -9 -10 -14 -14 -11 -4
2 -19 -6 -33 -19 -14 -13 -28 -21 -31 -18 -3 3 -6 0 -6 -6 0 -7 -7 -12 -15
-12 -8 0 -15 -4 -15 -9 0 -5 -9 -13 -20 -16 -11 -4 -18 -10 -15 -14 2 -5 -7
-13 -20 -19 -14 -7 -25 -16 -25 -22 0 -5 -5 -10 -11 -10 -14 0 -99 -85 -99
-100 0 -6 -5 -8 -10 -5 -6 3 -10 0 -10 -7 0 -8 -9 -20 -20 -28 -11 -8 -20 -18
-20 -23 0 -5 -6 -14 -13 -21 -23 -24 -62 -79 -59 -83 2 -3 -7 -13 -19 -24 -12
-10 -18 -19 -14 -19 4 0 0 -9 -10 -20 -10 -11 -15 -20 -11 -20 4 0 -2 -12 -13
-26 -11 -15 -18 -30 -15 -35 3 -5 1 -9 -4 -9 -5 0 -15 -18 -22 -40 -7 -22 -18
-40 -23 -40 -6 0 -8 -3 -4 -6 3 -4 -1 -23 -10 -43 -8 -20 -17 -45 -18 -56 -2
-11 -4 -21 -5 -22 -2 -2 -4 -7 -5 -13 -1 -5 -3 -11 -5 -12 -3 -5 -15 -58 -24
-113 -1 -5 -4 -14 -7 -20 -3 -5 -7 -26 -10 -45 -8 -65 -4 -3844 4 -3895 13
-80 14 -90 16 -90 2 0 4 -7 6 -15 2 -8 8 -35 14 -60 7 -25 13 -49 14 -55 1 -5
5 -14 8 -20 3 -5 11 -29 19 -52 7 -24 17 -43 22 -43 4 0 7 -3 6 -7 -3 -15 14
-63 23 -63 5 0 9 -3 8 -7 -2 -16 14 -53 22 -53 5 0 9 -7 9 -15 0 -8 4 -15 10
-15 5 0 9 -3 8 -7 -3 -10 33 -66 49 -76 7 -4 13 -15 13 -22 0 -8 4 -15 9 -15
5 0 12 -8 15 -18 4 -10 29 -42 56 -70 28 -29 50 -56 50 -62 0 -5 3 -10 8 -10
4 0 23 -15 43 -33 66 -59 120 -102 152 -119 18 -10 27 -18 22 -18 -12 0 75
-51 91 -54 7 -1 18 -7 25 -12 8 -6 29 -17 47 -25 17 -8 32 -17 32 -21 0 -5 3
-7 7 -6 5 1 18 -3 31 -10 12 -7 22 -10 22 -7 0 3 13 -1 30 -10 16 -9 30 -13
30 -9 0 4 6 2 13 -3 6 -6 26 -14 42 -18 17 -5 35 -9 40 -11 39 -11 81 -20 140
-30 62 -11 3855 -12 3910 -1 22 4 51 10 65 12 27 5 57 12 93 21 12 3 29 7 37
9 8 2 16 4 18 5 1 2 7 4 12 5 6 1 12 4 15 5 3 1 8 3 13 5 8 2 36 13 67 24 11
5 22 8 25 7 3 0 19 9 36 21 17 12 34 20 38 16 3 -3 6 -1 6 6 0 7 5 9 10 6 6
-3 10 -1 10 6 0 7 3 10 6 6 6 -5 119 61 151 88 36 30 43 35 48 35 3 0 17 11
31 25 14 14 29 25 35 25 6 0 7 5 4 10 -3 6 -1 10 6 10 15 0 99 86 99 100 0 6
5 8 10 5 6 -3 10 -1 10 4 0 6 8 19 18 29 9 11 26 31 36 46 11 15 28 37 38 48
10 12 18 25 18 30 0 5 9 18 20 30 10 12 17 25 14 30 -3 4 -1 8 3 8 11 0 100
187 109 228 1 8 6 21 10 30 4 9 8 20 9 25 2 4 4 8 5 10 1 1 4 11 6 22 1 11 5
30 8 42 15 57 24 110 35 203 9 74 6 3708 -3 3789 -4 36 -9 68 -12 72 -3 5 -7
25 -9 46 -2 21 -13 67 -24 102 -12 35 -21 70 -21 77 0 8 -5 14 -12 14 -6 0 -9
3 -5 6 3 4 0 19 -8 34 -8 15 -11 30 -8 34 4 3 1 6 -5 6 -7 0 -12 9 -12 20 0
11 -4 20 -10 20 -5 0 -9 3 -8 8 2 4 -13 34 -32 67 -19 33 -34 64 -35 68 0 4
-5 11 -10 15 -6 4 -21 24 -35 44 -14 21 -28 38 -32 38 -5 0 -8 5 -8 11 0 13
-18 34 -116 132 -79 81 -135 127 -170 143 -14 5 -22 13 -19 16 3 3 -8 11 -25
18 -16 7 -30 17 -30 22 0 5 -4 6 -10 3 -5 -3 -10 -2 -10 2 0 5 -24 19 -52 33
-29 13 -56 29 -60 35 -4 5 -8 6 -8 2 0 -4 -20 4 -45 17 -25 14 -45 23 -45 20
0 -2 -9 0 -21 6 -11 6 -28 13 -37 15 -9 2 -48 13 -87 23 -38 11 -88 23 -110
26 -22 4 -56 9 -75 13 -28 4 -3727 11 -3733 7z"/>
</g>
</svg>
